HIERARCHY
ROOT Hips
{
	OFFSET 0.000000 88.474243 0.000000
	CHANNELS 6 Xposition Yposition Zposition Zrotation Yrotation Xrotation 
	JOINT Hips_Spine
	{
		OFFSET 0.000000 0.000000 0.000000
		CHANNELS 3 Zrotation Yrotation Xrotation
		JOINT Spine
		{
			OFFSET 0.005100 8.711998 -0.691000
			CHANNELS 3 Zrotation Yrotation Xrotation
			JOINT Spine1
			{
				OFFSET -0.009200 8.660301 -1.275000
				CHANNELS 3 Zrotation Yrotation Xrotation
				JOINT Spine2
				{
					OFFSET 0.006300 9.852501 -1.857000
					CHANNELS 3 Zrotation Yrotation Xrotation
					JOINT Spine2_Neck
					{
						OFFSET 0.000000 0.000000 0.000000
						CHANNELS 3 Zrotation Yrotation Xrotation
						JOINT Neck
						{
							OFFSET 0.016300 11.420799 -0.263300
							CHANNELS 3 Zrotation Yrotation Xrotation
							End Site #name: Head
							{
								OFFSET -0.019200 9.262405 2.362500
							}
						}
					}
					JOINT Spine2_LeftShoulder
					{
						OFFSET 0.000000 0.000000 0.000000
						CHANNELS 3 Zrotation Yrotation Xrotation
						JOINT LeftShoulder
						{
							OFFSET 5.616900 6.732201 -0.345700
							CHANNELS 3 Zrotation Yrotation Xrotation
							JOINT LeftArm
							{
								OFFSET 10.664888 -0.183372 -2.440700
								CHANNELS 3 Zrotation Yrotation Xrotation
								JOINT LeftForeArm
								{
									OFFSET 27.459126 0.000000 0.000000
									CHANNELS 3 Zrotation Yrotation Xrotation
									End Site #name: LeftHand
									{
										OFFSET 21.306858 0.000000 0.000000
									}
								}
							}
						}
					}
					JOINT Spine2_RightShoulder
					{
						OFFSET 0.000000 0.000000 0.000000
						CHANNELS 3 Zrotation Yrotation Xrotation
						JOINT RightShoulder
						{
							OFFSET -5.580300 6.737503 -0.344400
							CHANNELS 3 Zrotation Yrotation Xrotation
							JOINT RightArm
							{
								OFFSET -10.679335 -0.188484 -2.383900
								CHANNELS 3 Zrotation Yrotation Xrotation
								JOINT RightForeArm
								{
									OFFSET -27.503529 0.000000 0.000000
									CHANNELS 3 Zrotation Yrotation Xrotation
									End Site #name: RightHand
									{
										OFFSET -21.306808 0.000000 0.000000
									}
								}
							}
						}
					}
				}
			}
		}
	}
	JOINT Hips_LeftUpLeg
	{
		OFFSET 0.000000 0.000000 0.000000
		CHANNELS 3 Zrotation Yrotation Xrotation
		JOINT LeftUpLeg
		{
			OFFSET 6.857700 -6.739601 0.312100
			CHANNELS 3 Zrotation Yrotation Xrotation
			JOINT LeftLeg
			{
				OFFSET -0.367590 -34.731552 -4.572400
				CHANNELS 3 Zrotation Yrotation Xrotation
				End Site #name: LeftFoot
				{
					OFFSET 0.367590 -34.656704 -6.067400
				}
			}
		}
	}
	JOINT Hips_RightUpLeg
	{
		OFFSET 0.000000 0.000000 0.000000
		CHANNELS 3 Zrotation Yrotation Xrotation
		JOINT RightUpLeg
		{
			OFFSET -6.876100 -6.733299 0.301000
			CHANNELS 3 Zrotation Yrotation Xrotation
			JOINT RightLeg
			{
				OFFSET 0.347353 -34.795158 -4.515900
				CHANNELS 3 Zrotation Yrotation Xrotation
				End Site #name: RightFoot
				{
					OFFSET -0.347353 -34.589367 -6.070300
				}
			}
		}
	}
}
MOTION
Frames: 18
Frame Time: 0.041667
0.353048 0.712491 -1.150838 2.410228 -9.636300 -7.331706 -0.000000 0.000000 -0.000000 -2.623171 -0.402672 -3.565458 2.147172 -2.010374 -6.209585 0.000000 0.000000 0.000000 2.588395 -1.466787 -6.004757 4.007264 -4.152830 -5.248326 1.129464 -1.770128 -6.952869 -17.863147 -0.464634 9.768199 -54.194621 12.864378 -4.625505 -0.630884 -21.524936 8.257382 1.627500 -1.814141 -3.346051 3.309970 5.953061 1.496729 67.094536 -1.247895 -7.911403 0.320880 48.918695 -0.694316 -0.000000 -0.000000 -0.000000 -10.240155 26.990000 -0.562519 -2.336582 1.207719 18.790083 0.000000 0.000000 0.000000 -7.113468 8.219415 -20.307926 5.625963 -3.008929 16.512397 
0.114297 0.718239 -1.221481 2.128550 -10.449118 -7.354409 -0.000000 0.000000 -0.000000 -1.738073 -0.461944 -4.295838 2.336178 -2.028058 -6.122259 0.000000 0.000000 0.000000 2.769532 -1.414023 -5.940521 3.968940 -4.121210 -4.953390 1.329411 -1.714258 -6.810586 -17.268315 -0.560840 9.869314 -55.197654 13.769263 -5.385490 -0.660881 -22.301736 8.120413 1.805819 -1.769592 -3.341837 3.418378 6.079557 1.538163 66.907647 -1.385094 -7.793735 0.331015 48.950324 -0.689321 -0.000000 -0.000000 -0.000000 -9.630739 27.171037 -0.072839 -2.478318 0.920791 18.665805 0.000000 0.000000 0.000000 -6.355998 8.550378 -20.564324 5.642821 -3.662621 16.479317 
-0.103258 0.721326 -1.291882 1.825956 -11.459024 -7.296444 -0.000000 0.000000 -0.000000 -0.826866 -0.478751 -4.961680 2.530019 -2.031993 -6.009685 0.000000 0.000000 0.000000 2.942583 -1.356814 -5.863457 3.978545 -4.091696 -4.589838 1.533243 -1.661386 -6.658296 -16.668060 -0.683332 9.938350 -56.192191 14.651885 -6.089970 -0.693560 -22.966544 7.976411 1.986636 -1.722220 -3.324920 3.537346 6.201350 1.567563 66.722771 -1.480484 -7.657146 0.339395 48.971518 -0.687843 -0.000000 -0.000000 -0.000000 -9.016547 27.360715 0.498121 -2.609301 0.561409 18.441348 0.000000 0.000000 0.000000 -5.560494 8.922721 -20.843336 5.729676 -4.116103 16.459189 
-0.287315 0.723541 -1.361268 1.574107 -12.658556 -7.212257 -0.000000 0.000000 -0.000000 0.018878 -0.500497 -5.620349 2.723687 -2.035778 -5.879870 0.000000 0.000000 0.000000 3.109281 -1.299675 -5.774136 3.963870 -4.105528 -4.175805 1.735684 -1.604398 -6.484611 -16.060763 -0.829534 9.986044 -57.106824 15.350887 -6.834788 -0.737525 -23.643401 7.824198 2.166650 -1.677550 -3.299786 3.719520 6.335073 1.591229 66.503420 -1.591898 -7.544902 0.347416 49.101284 -0.686623 -0.000000 -0.000000 -0.000000 -8.379604 27.611319 1.119832 -2.753458 0.239875 18.196552 0.000000 -0.000000 0.000000 -4.774568 9.344696 -21.102162 5.892725 -4.433354 16.475362 
-0.430437 0.724686 -1.430698 1.391016 -14.056194 -7.147631 -0.000000 -0.000000 0.000000 0.677146 -0.539445 -6.316077 2.911725 -2.035297 -5.741275 0.000000 0.000000 0.000000 3.272797 -1.244017 -5.671124 3.930011 -4.134914 -3.692976 1.933763 -1.546357 -6.296842 -15.458245 -0.976326 10.004324 -57.866051 15.753312 -7.646556 -0.789392 -24.310449 7.670995 2.342536 -1.632488 -3.265660 3.945421 6.500116 1.623145 66.211410 -1.805811 -7.531324 0.360709 49.471564 -0.685348 -0.000000 -0.000000 -0.000000 -7.748684 27.848289 1.767486 -2.908086 0.008905 17.912947 0.000000 -0.000000 0.000000 -4.065820 9.805002 -21.363229 6.071561 -4.667061 16.589702 
-0.525078 0.725769 -1.501996 1.308693 -15.806187 -7.107801 -0.000000 -0.000000 0.000000 1.294435 -0.565926 -6.907095 3.085765 -2.036488 -5.593817 0.000000 0.000000 0.000000 3.394747 -1.185971 -5.547383 3.867232 -4.176268 -3.128801 2.120687 -1.492430 -6.104468 -14.890819 -1.158325 9.980955 -58.639560 16.067760 -8.336292 -0.830839 -24.925395 7.515791 2.503378 -1.586043 -3.221566 4.202939 6.687743 1.663680 65.862091 -2.062848 -7.538747 0.380523 50.015940 -0.673867 -0.000000 -0.000000 -0.000000 -7.155158 28.030103 2.456142 -3.101297 -0.130177 17.551601 0.000000 -0.000000 0.000000 -3.487442 10.301813 -21.668134 6.242609 -4.823737 16.873341 
-0.565469 0.726471 -1.575749 1.360126 -17.880616 -7.111237 -0.000000 -0.000000 0.000000 1.792045 -0.625224 -7.282335 3.238472 -2.045770 -5.444083 0.000000 0.000000 0.000000 3.493448 -1.131482 -5.415271 3.748088 -4.187741 -2.466526 2.291579 -1.444177 -5.912741 -14.344968 -1.372560 9.909864 -59.304213 16.271146 -8.830959 -0.878221 -25.452523 7.358766 2.640455 -1.544068 -3.166056 4.505402 6.880694 1.708171 65.484429 -2.336815 -7.535345 0.406446 50.632888 -0.659442 -0.000000 -0.000000 -0.000000 -6.676353 28.131565 3.158999 -3.303609 -0.187807 17.129809 0.000000 -0.000000 0.000000 -3.058386 10.815710 -22.058088 6.402166 -4.886209 17.351826 
-0.547278 0.727332 -1.650867 1.530149 -20.168110 -7.143846 -0.000000 -0.000000 0.000000 2.115353 -0.743728 -7.363836 3.367534 -2.062445 -5.289641 0.000000 0.000000 0.000000 3.574556 -1.083864 -5.280659 3.560827 -4.165132 -1.709688 2.443409 -1.408544 -5.734233 -13.867266 -1.563633 9.830115 -59.865112 16.379940 -9.205671 -0.927952 -25.860376 7.237804 2.758951 -1.510284 -3.106302 4.806542 7.061325 1.749255 65.139124 -2.599602 -7.517359 0.436081 51.232035 -0.643276 -0.000000 -0.000000 -0.000000 -6.399276 28.132084 3.795934 -3.514998 -0.253744 16.751402 0.000000 -0.000000 0.000000 -2.779303 11.323001 -22.572117 6.558216 -4.849061 18.069313 
-0.475829 0.729740 -1.724831 1.797268 -22.648874 -7.198255 -0.000000 -0.000000 0.000000 2.373240 -0.889742 -7.415933 3.475507 -2.082833 -5.139350 0.000000 0.000000 0.000000 3.644939 -1.045231 -5.142815 3.300289 -4.096801 -0.862985 2.576274 -1.388444 -5.568556 -13.492047 -1.742103 9.749106 -60.296800 16.335879 -9.491319 -0.978946 -26.144739 7.155055 2.861928 -1.490479 -3.046367 5.030501 7.217836 1.778372 64.866830 -2.843778 -7.468033 0.468266 51.754355 -0.623989 -0.000000 -0.000000 -0.000000 -6.344951 27.963226 4.329929 -3.711462 -0.353515 16.447073 0.000000 -0.000000 0.000000 -2.621429 11.817321 -23.190567 6.712308 -4.741779 19.028807 
-0.354907 0.733069 -1.799363 2.130901 -25.459294 -7.293864 -0.000000 -0.000000 0.000000 2.614343 -1.034719 -7.420261 3.556594 -2.103846 -4.982039 0.000000 0.000000 0.000000 3.699067 -1.019513 -4.990622 3.022685 -3.957856 -0.032020 2.688447 -1.377710 -5.413918 -13.229163 -1.889984 9.663510 -60.670126 16.219383 -9.668500 -1.038423 -26.354975 7.114395 2.947192 -1.482269 -2.981417 5.166805 7.339696 1.797569 64.692402 -3.035876 -7.406202 0.501358 52.157302 -0.604875 -0.000000 -0.000000 -0.000000 -6.489306 27.626913 4.718315 -3.907731 -0.513241 16.361721 0.000000 -0.000000 0.000000 -2.559394 12.308121 -23.898328 6.859595 -4.607612 20.176026 
-0.187836 0.739257 -1.870705 2.502807 -28.542779 -7.408855 -0.000000 -0.000000 0.000000 2.856419 -1.199028 -7.398696 3.626562 -2.121504 -4.825873 0.000000 0.000000 0.000000 3.738575 -1.002137 -4.842066 2.797108 -3.662860 0.601212 2.776584 -1.373707 -5.266933 -13.092400 -2.003873 9.567236 -60.967028 16.017197 -9.732027 -1.115821 -26.494130 7.094729 3.014435 -1.485424 -2.920065 5.219708 7.429879 1.807576 64.610761 -3.172996 -7.312891 0.533747 52.398974 -0.583961 -0.000000 -0.000000 -0.000000 -6.734133 27.129785 4.945233 -4.120124 -0.766564 16.649204 0.000000 -0.000000 0.000000 -2.563957 12.746889 -24.687438 7.004489 -4.458460 21.455946 
0.022997 0.746827 -1.939629 2.842777 -31.303075 -7.517839 -0.000000 -0.000000 0.000000 3.167594 -1.426673 -7.405833 3.695193 -2.141921 -4.686328 0.000000 0.000000 0.000000 3.774909 -0.988966 -4.700947 2.630151 -3.320005 0.946571 2.843108 -1.372788 -5.139942 -13.088968 -2.055430 9.485711 -61.179386 15.816192 -9.738908 -1.188892 -26.603714 7.068343 3.066390 -1.493440 -2.862694 5.204414 7.494462 1.817263 64.619284 -3.275855 -7.236830 0.561039 52.523163 -0.566283 -0.000000 -0.000000 -0.000000 -6.986851 26.539732 5.079466 -4.326496 -1.102029 17.203603 0.000000 -0.000000 0.000000 -2.548030 13.138643 -25.460270 7.144573 -4.307926 22.815579 
0.275980 0.757482 -2.005411 3.111652 -33.646649 -7.599772 -0.000000 -0.000000 0.000000 3.492557 -1.679984 -7.463220 3.766616 -2.159921 -4.564927 0.000000 0.000000 0.000000 3.813183 -0.983354 -4.579120 2.506263 -2.957906 1.250701 2.913473 -1.373244 -5.032118 -13.201052 -2.042856 9.408584 -61.256454 15.580911 -9.680205 -1.270461 -26.722656 6.999869 3.120166 -1.507922 -2.815102 5.157415 7.538949 1.828271 64.670115 -3.373180 -7.171379 0.583016 52.636888 -0.551186 -0.000000 -0.000000 -0.000000 -7.209204 25.931443 5.091204 -4.513281 -1.410676 18.005364 0.000000 -0.000000 0.000000 -2.578743 13.480330 -26.174052 7.295303 -4.117774 24.196952 
0.565641 0.773738 -2.067604 3.337948 -35.696314 -7.750711 -0.000000 -0.000000 0.000000 3.800806 -1.933490 -7.535320 3.851265 -2.173532 -4.468567 0.000000 0.000000 0.000000 3.859226 -0.980089 -4.463834 2.412283 -2.604916 1.540052 2.995229 -1.372898 -4.936072 -13.397411 -1.970736 9.346499 -61.195308 15.327462 -9.557498 -1.337607 -26.883852 6.872045 3.185528 -1.526102 -2.775790 5.091008 7.572133 1.843300 64.763016 -3.481594 -7.191153 0.601495 52.808602 -0.531311 0.000000 -0.000000 -0.000000 -7.462483 25.136208 4.957781 -4.670610 -1.676901 19.022329 0.000000 -0.000000 0.000000 -2.632305 13.760370 -26.761973 7.545784 -3.721729 25.487140 
0.887513 0.795584 -2.127820 3.507674 -37.406509 -7.890704 -0.000000 -0.000000 0.000000 4.054032 -2.182952 -7.621484 3.946567 -2.184858 -4.376363 0.000000 0.000000 0.000000 3.912581 -0.973815 -4.354523 2.351677 -2.288147 1.791208 3.089789 -1.371014 -4.843402 -13.633158 -1.866076 9.293746 -61.086663 15.167938 -9.456155 -1.388123 -27.063319 6.696160 3.261125 -1.542790 -2.741174 5.008249 7.610231 1.862892 64.866068 -3.622642 -7.298714 0.618915 53.023856 -0.507406 0.000000 -0.000000 -0.000000 -7.787390 24.228631 4.669007 -4.837047 -2.005019 20.217072 0.000000 -0.000000 0.000000 -2.754036 13.948312 -27.238519 7.797644 -3.292730 26.695044 
1.235858 0.822479 -2.187821 3.622828 -38.670436 -8.011781 -0.000000 -0.000000 0.000000 4.252036 -2.462903 -7.752331 4.051230 -2.189595 -4.298794 0.000000 0.000000 0.000000 3.969655 -0.956803 -4.243277 2.279686 -1.979095 2.000627 3.190626 -1.364624 -4.750521 -13.857746 -1.787498 9.262822 -61.005208 15.132847 -9.424588 -1.418538 -27.187883 6.500450 3.341208 -1.551510 -2.707064 4.958962 7.662918 1.892870 64.977248 -3.772853 -7.433306 0.634122 53.178442 -0.472645 0.000000 -0.000000 -0.000000 -8.178546 23.280577 4.302460 -4.966233 -2.348984 21.381887 0.000000 -0.000000 0.000000 -2.951329 14.026285 -27.598857 8.003824 -2.896713 27.751834 
1.604065 0.854895 -2.248327 3.663731 -39.392495 -8.086526 -0.000000 -0.000000 0.000000 4.403282 -2.789837 -7.874243 4.140141 -2.182401 -4.225553 0.000000 0.000000 0.000000 4.022613 -0.936961 -4.143711 2.171048 -1.777785 2.169792 3.290184 -1.354916 -4.669167 -14.044692 -1.736619 9.239336 -60.947079 15.226942 -9.509336 -1.432852 -27.335414 6.272983 3.420859 -1.553369 -2.676834 4.939543 7.734738 1.930838 65.043070 -3.997750 -7.662451 0.654575 53.277833 -0.439860 0.000000 -0.000000 -0.000000 -8.576680 22.370384 3.856878 -4.988401 -2.583726 22.448847 0.000000 -0.000000 0.000000 -3.207709 13.924008 -27.809229 8.189195 -2.552006 28.601916 
1.984585 0.893586 -2.308334 3.642654 -39.551170 -8.110010 -0.000000 -0.000000 0.000000 4.550003 -3.068140 -7.994499 4.205612 -2.162521 -4.152731 0.000000 0.000000 0.000000 4.075138 -0.911858 -4.052487 2.016811 -1.722871 2.296519 3.375574 -1.340343 -4.582429 -14.167027 -1.790660 9.209596 -60.944104 15.460560 -9.749733 -1.427287 -27.431684 6.070269 3.490352 -1.536581 -2.646946 4.958731 7.848037 1.973241 65.003525 -4.140405 -7.971620 0.679917 53.444910 -0.405062 0.000000 -0.000000 -0.000000 -8.979155 21.550429 3.339727 -4.884580 -2.726202 23.351190 0.000000 -0.000000 0.000000 -3.533777 13.611077 -27.812184 8.235767 -2.377874 29.279459 
